Coordinates
version=1
nRows=13
nColumns=38
inDegrees=no

Units are S.I. units (second, meters, Newtons, ...)
If the header above contains a line with 'inDegrees', this indicates whether rotational values are in degrees (yes) or radians (no).

endheader
time	pelvis_tilt	pelvis_list	pelvis_rotation	pelvis_tx	pelvis_ty	pelvis_tz	hip_flexion_r	hip_adduction_r	hip_rotation_r	knee_angle_r	ankle_angle_r	subtalar_angle_r	mtp_angle_r	hip_flexion_l	hip_adduction_l	hip_rotation_l	knee_angle_l	ankle_angle_l	subtalar_angle_l	mtp_angle_l	lumbar_extension	lumbar_bending	lumbar_rotation	arm_flex_r	arm_add_r	arm_rot_r	elbow_flex_r	pro_sup_r	wrist_flex_r	wrist_dev_r	arm_flex_l	arm_add_l	arm_rot_l	elbow_flex_l	pro_sup_l	wrist_flex_l	wrist_dev_l
0.666667	0.169663	0.057745	0.0817994	0.721005	0.966651	-0.388353	0.361196	-0.147645	-0.11094	-1.90726	-0.0823904	-0.0249142	-0.00296313	-0.0293696	0.166638	0.166273	-0.731315	0.464012	-0.012644	-0.0101544	-0.496189	-0.0378505	-0.184014	-0.403145	-0.374581	0.132779	1.85621	1.27822	-0.0106676	0.0134764	-0.133883	-0.55573	-0.0805632	2.15143	1.82844	0.0298793	-0.0388848
0.675	0.16569	0.0437152	0.0852245	0.721218	0.970654	-0.388747	0.395175	-0.13194	-0.113962	-1.86908	-0.0721232	-0.0249142	-0.00296313	-0.0766404	0.145692	0.172879	-0.685294	0.448052	-0.012644	-0.0101544	-0.489762	-0.0175461	-0.197895	-0.418307	-0.376472	0.11415	1.87111	1.25716	-0.0106676	0.0134764	-0.124015	-0.539921	-0.0686272	2.15527	1.81366	0.0298793	-0.0388848
0.683333	0.160596	0.028243	0.0884141	0.721884	0.975014	-0.38914	0.425596	-0.116387	-0.12093	-1.82258	-0.0624347	-0.0249142	-0.00296313	-0.12253	0.122856	0.177151	-0.637846	0.423332	-0.012644	-0.0101544	-0.480989	0.0041527	-0.210305	-0.434133	-0.380403	0.0955795	1.88864	1.24	-0.0106676	0.0134764	-0.119485	-0.525555	-0.0544733	2.16195	1.796	0.0298793	-0.0388848
0.691667	0.154621	0.0118362	0.0909706	0.72295	0.979635	-0.38949	0.452196	-0.101165	-0.130979	-1.76824	-0.0532375	-0.0249142	-0.00296313	-0.166367	0.0989116	0.17817	-0.590515	0.389694	-0.012644	-0.0101544	-0.470371	0.026538	-0.221071	-0.45013	-0.386165	0.0771486	1.90721	1.22734	-0.0106676	0.0134764	-0.11971	-0.513	-0.0383631	2.17079	1.77803	0.0298793	-0.0388848
0.7	0.148095	-0.00504758	0.0925381	0.724346	0.984432	-0.389752	0.474667	-0.0862059	-0.143075	-1.70643	-0.0443502	-0.0249142	-0.00296313	-0.20762	0.0745937	0.17516	-0.544852	0.347373	-0.012644	-0.0101544	-0.458551	0.0489833	-0.230093	-0.465751	-0.393519	0.0589816	1.9255	1.21941	-0.0106676	0.0134764	-0.124104	-0.502427	-0.0208553	2.18112	1.76218	0.0298793	-0.0388848
0.708333	0.14137	-0.0219979	0.0928311	0.725988	0.989324	-0.389882	0.492695	-0.0712431	-0.15607	-1.63745	-0.0354948	-0.0249142	-0.00296313	-0.24587	0.0505714	0.167589	-0.502358	0.29707	-0.012644	-0.0101544	-0.446231	0.0709317	-0.237358	-0.480435	-0.402199	0.0412535	1.94247	1.21609	-0.0106676	0.0134764	-0.132132	-0.493861	-0.00271997	2.1924	1.75046	0.0298793	-0.0388848
0.716667	0.134786	-0.0386207	0.0916473	0.727795	0.994231	-0.389835	0.505998	-0.0559209	-0.168741	-1.56158	-0.026313	-0.0249142	-0.00296313	-0.2808	0.0274628	0.155259	-0.464434	0.239958	-0.012644	-0.0101544	-0.434099	0.0918551	-0.242934	-0.493643	-0.411911	0.0241808	1.95742	1.2169	-0.0106676	0.0134764	-0.143331	-0.487222	0.0151904	2.20421	1.74416	0.0298793	-0.0388848
0.725	0.128629	-0.054494	0.0888697	0.729693	0.999073	-0.389574	0.514373	-0.0399373	-0.179844	-1.47914	-0.0164044	-0.0249142	-0.00296313	-0.312166	0.00586959	0.138375	-0.43235	0.177648	-0.012644	-0.0101544	-0.422758	0.111211	-0.246955	-0.504901	-0.422333	0.00798991	1.96994	1.22111	-0.0106676	0.0134764	-0.157306	-0.482368	0.0320791	2.21625	1.74372	0.0298793	-0.0388848
0.733333	0.123096	-0.0691352	0.0844722	0.731617	1.00376	-0.389074	0.517756	-0.0231852	-0.188198	-1.39061	-0.00537902	-0.0249142	-0.00296313	-0.339749	-0.0135918	0.117584	-0.407255	0.112108	-0.012644	-0.0101544	-0.412663	0.12842	-0.249616	-0.513851	-0.433127	-0.00713119	1.97993	1.22777	-0.0106676	0.0134764	-0.173698	-0.479126	0.0473256	2.2283	1.74876	0.0298793	-0.0388848
0.741667	0.118277	-0.0819992	0.078532	0.733513	1.0082	-0.388334	0.516265	-0.00585437	-0.192811	-1.29674	0.00707816	-0.0249142	-0.00296313	-0.363309	-0.0302845	0.0939865	-0.390208	0.0455527	-0.012644	-0.0101544	-0.404079	0.142894	-0.25116	-0.520288	-0.443949	-0.0210832	1.98748	1.23586	-0.0106676	0.0134764	-0.192147	-0.477302	0.0605667	2.24016	1.75816	0.0298793	-0.0388848
0.75	0.114163	-0.0925154	0.071247	0.735333	1.01228	-0.387378	0.510235	0.0115312	-0.193023	-1.19863	0.0211393	-0.0249142	-0.00296313	-0.382555	-0.04358	0.0691034	-0.382196	-0.0196767	-0.012644	-0.0101544	-0.397077	0.154094	-0.25187	-0.524183	-0.454484	-0.0338943	1.99287	1.2444	-0.0106676	0.0134764	-0.212266	-0.476686	0.071724	2.25165	1.77025	0.0298793	-0.0388848
0.758333	0.110663	-0.100159	0.0629453	0.737036	1.01591	-0.386256	0.50022	0.0281589	-0.188635	-1.09782	0.0367718	-0.0249142	-0.00296313	-0.397145	-0.0529204	0.0447723	-0.384128	-0.0812363	-0.012644	-0.0101544	-0.391561	0.16162	-0.252056	-0.525683	-0.464463	-0.0457304	1.99647	1.25256	-0.0106676	0.0134764	-0.233621	-0.477046	0.0809739	2.26255	1.783	0.0298793	-0.0388848
0.766667	0.107659	-0.10454	0.0540722	0.738583	1.01898	-0.385043	0.486961	0.0430573	-0.179967	-0.996245	0.0536962	-0.0249142	-0.00296313	-0.406735	-0.0579013	0.0229558	-0.396788	-0.136889	-0.012644	-0.0101544	-0.387337	0.165302	-0.252021	-0.525078	-0.473694	-0.0568787	1.99873	1.25969	-0.0106676	0.0134764	-0.255733	-0.478133	0.0886738	2.27262	1.7943	0.0298793	-0.0388848
